<svg xmlns="http://www.w3.org/2000/svg" xmlns:xlink="http://www.w3.org/1999/xlink" width="500" zoomAndPan="magnify" viewBox="0 0 375 374.999991" height="500" preserveAspectRatio="xMidYMid meet" version="1.0"><defs><g/><clipPath id="240b4f2106"><path d="M 52.367188 52.367188 L 322.632812 52.367188 L 322.632812 322.632812 L 52.367188 322.632812 Z M 52.367188 52.367188 " clip-rule="nonzero"/></clipPath><clipPath id="cd73978f6b"><path d="M 187.5 52.367188 C 112.867188 52.367188 52.367188 112.867188 52.367188 187.5 C 52.367188 262.132812 112.867188 322.632812 187.5 322.632812 C 262.132812 322.632812 322.632812 262.132812 322.632812 187.5 C 322.632812 112.867188 262.132812 52.367188 187.5 52.367188 Z M 187.5 52.367188 " clip-rule="nonzero"/></clipPath><clipPath id="d2a864c67d"><path d="M 0.367188 0.367188 L 270.632812 0.367188 L 270.632812 270.632812 L 0.367188 270.632812 Z M 0.367188 0.367188 " clip-rule="nonzero"/></clipPath><clipPath id="6c0947f631"><path d="M 135.5 0.367188 C 60.867188 0.367188 0.367188 60.867188 0.367188 135.5 C 0.367188 210.132812 60.867188 270.632812 135.5 270.632812 C 210.132812 270.632812 270.632812 210.132812 270.632812 135.5 C 270.632812 60.867188 210.132812 0.367188 135.5 0.367188 Z M 135.5 0.367188 " clip-rule="nonzero"/></clipPath><clipPath id="76d907f542"><rect x="0" width="271" y="0" height="271"/></clipPath><clipPath id="b775e60f32"><path d="M 57.542969 57.542969 L 317.457031 57.542969 L 317.457031 317.457031 L 57.542969 317.457031 Z M 57.542969 57.542969 " clip-rule="nonzero"/></clipPath><clipPath id="d3b4f3dab5"><path d="M 187.5 57.542969 C 115.726562 57.542969 57.542969 115.726562 57.542969 187.5 C 57.542969 259.273438 115.726562 317.457031 187.5 317.457031 C 259.273438 317.457031 317.457031 259.273438 317.457031 187.5 C 317.457031 115.726562 259.273438 57.542969 187.5 57.542969 Z M 187.5 57.542969 " clip-rule="nonzero"/></clipPath><clipPath id="22ea294740"><path d="M 0.542969 0.542969 L 260.457031 0.542969 L 260.457031 260.457031 L 0.542969 260.457031 Z M 0.542969 0.542969 " clip-rule="nonzero"/></clipPath><clipPath id="d406a011ca"><path d="M 130.5 0.542969 C 58.726562 0.542969 0.542969 58.726562 0.542969 130.5 C 0.542969 202.273438 58.726562 260.457031 130.5 260.457031 C 202.273438 260.457031 260.457031 202.273438 260.457031 130.5 C 260.457031 58.726562 202.273438 0.542969 130.5 0.542969 Z M 130.5 0.542969 " clip-rule="nonzero"/></clipPath><clipPath id="ef0d561b6e"><rect x="0" width="261" y="0" height="261"/></clipPath><clipPath id="8cc9a7b702"><path d="M 64.289062 64.289062 L 310.710938 64.289062 L 310.710938 310.710938 L 64.289062 310.710938 Z M 64.289062 64.289062 " clip-rule="nonzero"/></clipPath><clipPath id="cb9f1dd93b"><path d="M 187.5 64.289062 C 119.453125 64.289062 64.289062 119.453125 64.289062 187.5 C 64.289062 255.546875 119.453125 310.710938 187.5 310.710938 C 255.546875 310.710938 310.710938 255.546875 310.710938 187.5 C 310.710938 119.453125 255.546875 64.289062 187.5 64.289062 Z M 187.5 64.289062 " clip-rule="nonzero"/></clipPath><clipPath id="630312eb05"><path d="M 0.289062 0.289062 L 246.710938 0.289062 L 246.710938 246.710938 L 0.289062 246.710938 Z M 0.289062 0.289062 " clip-rule="nonzero"/></clipPath><clipPath id="6b4b037c60"><path d="M 123.5 0.289062 C 55.453125 0.289062 0.289062 55.453125 0.289062 123.5 C 0.289062 191.546875 55.453125 246.710938 123.5 246.710938 C 191.546875 246.710938 246.710938 191.546875 246.710938 123.5 C 246.710938 55.453125 191.546875 0.289062 123.5 0.289062 Z M 123.5 0.289062 " clip-rule="nonzero"/></clipPath><clipPath id="3ae2cb13e0"><rect x="0" width="247" y="0" height="247"/></clipPath><clipPath id="1f6d11f10b"><path d="M 79.171875 212.074219 L 95.671875 212.074219 L 95.671875 228.574219 L 79.171875 228.574219 Z M 79.171875 212.074219 " clip-rule="nonzero"/></clipPath><clipPath id="e05062f504"><path d="M 279.515625 212.074219 L 296 212.074219 L 296 228.574219 L 279.515625 228.574219 Z M 279.515625 212.074219 " clip-rule="nonzero"/></clipPath><clipPath id="0b9f4706c3"><path d="M 103.734375 103.734375 L 271.265625 103.734375 L 271.265625 271.265625 L 103.734375 271.265625 Z M 103.734375 103.734375 " clip-rule="nonzero"/></clipPath><clipPath id="ed2bbbbd68"><path d="M 187.5 103.734375 C 141.238281 103.734375 103.734375 141.238281 103.734375 187.5 C 103.734375 233.761719 141.238281 271.265625 187.5 271.265625 C 233.761719 271.265625 271.265625 233.761719 271.265625 187.5 C 271.265625 141.238281 233.761719 103.734375 187.5 103.734375 Z M 187.5 103.734375 " clip-rule="nonzero"/></clipPath><clipPath id="f43d7abf4d"><path d="M 0.734375 0.734375 L 168.265625 0.734375 L 168.265625 168.265625 L 0.734375 168.265625 Z M 0.734375 0.734375 " clip-rule="nonzero"/></clipPath><clipPath id="a41cca8f7c"><path d="M 84.5 0.734375 C 38.238281 0.734375 0.734375 38.238281 0.734375 84.5 C 0.734375 130.761719 38.238281 168.265625 84.5 168.265625 C 130.761719 168.265625 168.265625 130.761719 168.265625 84.5 C 168.265625 38.238281 130.761719 0.734375 84.5 0.734375 Z M 84.5 0.734375 " clip-rule="nonzero"/></clipPath><clipPath id="e63095b089"><rect x="0" width="169" y="0" height="169"/></clipPath><clipPath id="1701011015"><path d="M 110.476562 110.476562 L 264.523438 110.476562 L 264.523438 264.523438 L 110.476562 264.523438 Z M 110.476562 110.476562 " clip-rule="nonzero"/></clipPath><clipPath id="68de33f869"><path d="M 187.5 110.476562 C 144.960938 110.476562 110.476562 144.960938 110.476562 187.5 C 110.476562 230.039062 144.960938 264.523438 187.5 264.523438 C 230.039062 264.523438 264.523438 230.039062 264.523438 187.5 C 264.523438 144.960938 230.039062 110.476562 187.5 110.476562 Z M 187.5 110.476562 " clip-rule="nonzero"/></clipPath><clipPath id="4ae8929dbd"><path d="M 0.476562 0.476562 L 154.523438 0.476562 L 154.523438 154.523438 L 0.476562 154.523438 Z M 0.476562 0.476562 " clip-rule="nonzero"/></clipPath><clipPath id="44415d6731"><path d="M 77.5 0.476562 C 34.960938 0.476562 0.476562 34.960938 0.476562 77.5 C 0.476562 120.039062 34.960938 154.523438 77.5 154.523438 C 120.039062 154.523438 154.523438 120.039062 154.523438 77.5 C 154.523438 34.960938 120.039062 0.476562 77.5 0.476562 Z M 77.5 0.476562 " clip-rule="nonzero"/></clipPath><clipPath id="0aaa3b8610"><rect x="0" width="155" y="0" height="155"/></clipPath><clipPath id="271d3278c2"><path d="M 122.332031 125 L 252.832031 125 L 252.832031 250 L 122.332031 250 Z M 122.332031 125 " clip-rule="nonzero"/></clipPath><clipPath id="4dc7b1dbc4"><rect x="0" width="247" y="0" height="142"/></clipPath><clipPath id="e90d04253c"><rect x="0" width="44" y="0" height="32"/></clipPath></defs><rect x="-37.5" width="450" fill="#ffffff" y="-37.499999" height="449.999989" fill-opacity="1"/><rect x="-37.5" width="450" fill="#ffffff" y="-37.499999" height="449.999989" fill-opacity="1"/><g clip-path="url(#240b4f2106)"><g clip-path="url(#cd73978f6b)"><g transform="matrix(1, 0, 0, 1, 52, 52)"><g clip-path="url(#76d907f542)"><g clip-path="url(#d2a864c67d)"><g clip-path="url(#6c0947f631)"><path fill="#c85103" d="M 0.367188 0.367188 L 270.632812 0.367188 L 270.632812 270.632812 L 0.367188 270.632812 Z M 0.367188 0.367188 " fill-opacity="1" fill-rule="nonzero"/></g></g></g></g></g></g><g clip-path="url(#b775e60f32)"><g clip-path="url(#d3b4f3dab5)"><g transform="matrix(1, 0, 0, 1, 57, 57)"><g clip-path="url(#ef0d561b6e)"><g clip-path="url(#22ea294740)"><g clip-path="url(#d406a011ca)"><path fill="#722410" d="M 0.542969 0.542969 L 260.457031 0.542969 L 260.457031 260.457031 L 0.542969 260.457031 Z M 0.542969 0.542969 " fill-opacity="1" fill-rule="nonzero"/></g></g></g></g></g></g><g clip-path="url(#8cc9a7b702)"><g clip-path="url(#cb9f1dd93b)"><g transform="matrix(1, 0, 0, 1, 64, 64)"><g clip-path="url(#3ae2cb13e0)"><g clip-path="url(#630312eb05)"><g clip-path="url(#6b4b037c60)"><path fill="#141414" d="M 0.289062 0.289062 L 246.710938 0.289062 L 246.710938 246.710938 L 0.289062 246.710938 Z M 0.289062 0.289062 " fill-opacity="1" fill-rule="nonzero"/></g></g></g></g></g></g><g clip-path="url(#1f6d11f10b)"><path fill="#c85103" d="M 90.441406 217.105469 L 90.695312 212.074219 L 87.320312 215.8125 L 83.945312 212.074219 L 84.203125 217.105469 L 79.171875 216.847656 L 82.910156 220.222656 L 79.171875 223.601562 L 84.203125 223.34375 L 83.945312 228.375 L 87.320312 224.636719 L 90.695312 228.375 L 90.441406 223.34375 L 95.472656 223.601562 L 91.730469 220.222656 L 95.472656 216.847656 Z M 90.441406 217.105469 " fill-opacity="1" fill-rule="nonzero"/></g><g clip-path="url(#e05062f504)"><path fill="#c85103" d="M 290.785156 217.105469 L 291.042969 212.074219 L 287.667969 215.8125 L 284.292969 212.074219 L 284.546875 217.105469 L 279.515625 216.847656 L 283.257812 220.222656 L 279.515625 223.601562 L 284.546875 223.34375 L 284.292969 228.375 L 287.667969 224.636719 L 291.042969 228.375 L 290.785156 223.34375 L 295.816406 223.601562 L 292.078125 220.222656 L 295.816406 216.847656 Z M 290.785156 217.105469 " fill-opacity="1" fill-rule="nonzero"/></g><g clip-path="url(#0b9f4706c3)"><g clip-path="url(#ed2bbbbd68)"><g transform="matrix(1, 0, 0, 1, 103, 103)"><g clip-path="url(#e63095b089)"><g clip-path="url(#f43d7abf4d)"><g clip-path="url(#a41cca8f7c)"><path fill="#722410" d="M 0.734375 0.734375 L 168.265625 0.734375 L 168.265625 168.265625 L 0.734375 168.265625 Z M 0.734375 0.734375 " fill-opacity="1" fill-rule="nonzero"/></g></g></g></g></g></g><g clip-path="url(#1701011015)"><g clip-path="url(#68de33f869)"><g transform="matrix(1, 0, 0, 1, 110, 110)"><g clip-path="url(#0aaa3b8610)"><g clip-path="url(#4ae8929dbd)"><g clip-path="url(#44415d6731)"><path fill="#141414" d="M 0.476562 0.476562 L 154.523438 0.476562 L 154.523438 154.523438 L 0.476562 154.523438 Z M 0.476562 0.476562 " fill-opacity="1" fill-rule="nonzero"/></g></g></g></g></g></g><g clip-path="url(#271d3278c2)"><path fill="#c85103" d="M 215.292969 221.28125 C 213.886719 222.6875 209.664062 221.984375 208.960938 220.578125 C 211.070312 227.613281 206.851562 233.238281 200.519531 234.648438 C 204.738281 231.128906 204.738281 228.316406 204.035156 225.503906 C 200.519531 236.757812 189.96875 236.757812 185.042969 234.648438 C 192.078125 233.238281 194.1875 229.019531 194.1875 229.019531 C 186.449219 233.238281 175.195312 231.128906 171.675781 226.910156 C 180.117188 229.019531 192.078125 226.910156 195.59375 220.578125 C 192.78125 223.390625 189.265625 223.390625 189.265625 223.390625 C 191.375 221.28125 192.78125 217.761719 192.78125 217.761719 C 189.265625 221.28125 185.042969 221.984375 185.042969 221.984375 C 189.96875 217.761719 189.96875 211.433594 189.96875 211.433594 C 189.265625 213.542969 184.339844 212.839844 184.339844 212.839844 C 187.855469 210.726562 189.265625 208.621094 189.265625 206.507812 C 189.265625 200.175781 180.820312 202.992188 177.304688 194.550781 C 182.230469 199.472656 185.746094 198.769531 185.746094 198.769531 C 182.230469 198.066406 179.414062 195.957031 178.007812 194.550781 C 176.601562 192.4375 175.898438 190.328125 173.082031 191.03125 C 163.9375 193.140625 160.421875 202.992188 160.421875 211.433594 C 162.53125 240.976562 208.257812 243.792969 229.363281 236.054688 C 215.292969 248.71875 185.746094 255.75 168.863281 243.089844 C 169.566406 244.496094 171.675781 246.605469 173.082031 248.71875 C 173.082031 248.71875 159.71875 245.199219 155.496094 231.128906 C 155.496094 231.128906 154.792969 236.757812 156.902344 242.386719 C 156.902344 242.386719 144.242188 234.648438 146.351562 217.058594 C 146.351562 217.058594 141.429688 224.800781 143.539062 231.835938 C 143.539062 231.835938 133.6875 219.875 141.429688 203.695312 C 141.429688 203.695312 133.6875 209.320312 132.28125 218.46875 C 132.28125 218.46875 128.0625 204.398438 139.316406 194.550781 C 139.316406 194.550781 130.171875 196.660156 125.949219 204.398438 C 125.949219 204.398438 124.542969 187.515625 142.132812 184.703125 C 142.132812 184.703125 135.800781 183.292969 122.433594 185.40625 C 122.433594 185.40625 133.6875 171.335938 153.386719 179.777344 C 153.386719 179.777344 147.054688 174.851562 132.984375 172.742188 C 143.539062 169.222656 158.3125 172.039062 167.457031 176.257812 C 167.457031 176.257812 157.605469 169.222656 142.835938 167.816406 C 158.3125 165.707031 167.457031 170.628906 172.378906 174.148438 C 176.601562 176.257812 182.933594 176.257812 182.933594 170.628906 C 180.820312 169.925781 180.117188 168.519531 180.117188 168.519531 C 182.230469 168.519531 183.636719 167.113281 183.636719 167.113281 C 178.007812 166.410156 176.601562 160.78125 176.601562 160.78125 C 183.636719 165.707031 189.265625 159.375 194.890625 162.890625 C 197.703125 162.890625 202.628906 165.003906 203.332031 167.816406 C 197 165.003906 191.375 168.519531 192.078125 174.148438 C 193.484375 186.808594 218.105469 184.703125 214.589844 162.890625 C 210.367188 136.160156 169.566406 129.125 145.648438 138.972656 C 159.71875 126.3125 189.265625 119.277344 206.148438 132.644531 C 205.441406 130.535156 204.035156 128.421875 201.925781 126.3125 C 201.925781 126.3125 215.292969 129.828125 219.511719 143.898438 C 219.511719 143.898438 220.214844 138.273438 218.105469 133.347656 C 218.105469 133.347656 230.769531 140.378906 228.65625 157.96875 C 228.65625 157.96875 233.582031 150.933594 231.472656 143.195312 C 231.472656 143.195312 241.320312 155.15625 233.582031 171.335938 C 233.582031 171.335938 241.320312 165.707031 242.726562 156.5625 C 242.726562 156.5625 246.949219 170.628906 235.695312 180.480469 C 235.695312 180.480469 244.835938 178.371094 249.058594 171.335938 C 249.058594 171.335938 250.464844 187.515625 232.878906 190.328125 C 232.878906 190.328125 239.207031 192.4375 252.574219 189.625 C 252.574219 189.625 244.132812 203.695312 221.621094 195.253906 C 221.621094 195.253906 226.546875 200.878906 242.726562 202.289062 C 226.546875 207.210938 212.480469 200.878906 210.367188 193.140625 C 210.367188 197.363281 211.777344 201.585938 211.777344 201.585938 C 205.441406 196.660156 204.035156 191.03125 204.035156 191.03125 C 203.332031 194.550781 205.441406 198.066406 205.441406 198.066406 C 199.113281 194.550781 197.703125 189.625 197.703125 189.625 C 197 191.734375 199.816406 198.066406 206.851562 200.878906 C 205.441406 201.585938 202.628906 202.289062 199.816406 201.585938 C 199.816406 201.585938 206.148438 211.433594 215.292969 211.433594 C 214.589844 212.839844 208.960938 214.949219 205.441406 212.136719 C 205.441406 212.136719 208.257812 218.46875 215.292969 221.28125 " fill-opacity="1" fill-rule="nonzero"/></g><g transform="matrix(1, 0, 0, 1, 64, 65)"><g clip-path="url(#4dc7b1dbc4)"><g fill="#ffffff" fill-opacity="1"><g transform="translate(29.881536, 139.445389)"><g><path d="M -0.25 -5.96875 L -4.09375 -1.78125 L -15.28125 -1.296875 L -19.46875 -5.140625 L -19.96875 -16.828125 L -16.125 -21.015625 L -4.9375 -21.5 L -0.75 -17.65625 Z M -4.34375 -8.09375 L -4.640625 -15.171875 L -6.375 -16.765625 L -14.328125 -16.421875 L -15.890625 -14.6875 L -15.59375 -7.609375 L -13.875 -6.046875 L -5.921875 -6.390625 Z M -4.34375 -8.09375 "/></g></g></g><g fill="#ffffff" fill-opacity="1"><g transform="translate(29.246259, 112.601428)"><g><path d="M 0.578125 -2.4375 L -18.125 -6.9375 L -14.71875 -21.078125 L -10.421875 -23.6875 L -4.703125 -22.3125 L -2.328125 -18.484375 L 3.609375 -20.921875 L 4.953125 -20.59375 L 3.890625 -16.171875 L -2.984375 -13.4375 L -4.203125 -8.375 L 1.671875 -6.96875 Z M -7.921875 -9.265625 L -6.1875 -16.453125 L -7.203125 -18.125 L -9.9375 -18.78125 L -11.59375 -17.765625 L -13.328125 -10.578125 Z M -7.921875 -9.265625 "/></g></g></g><g fill="#ffffff" fill-opacity="1"><g transform="translate(35.720681, 87.419102)"><g><path d="M 1.234375 -2.171875 L -15.53125 -11.609375 L -8.25 -24.546875 L -2.78125 -26.078125 L 6.984375 -20.578125 L 8.515625 -15.109375 Z M 0.046875 -8.203125 L 3.90625 -15.046875 L 3.265625 -17.296875 L -3.671875 -21.21875 L -5.90625 -20.578125 L -9.765625 -13.734375 Z M 0.046875 -8.203125 "/></g></g></g><g fill="#ffffff" fill-opacity="1"><g transform="translate(49.300794, 64.558481)"><g><path d="M 1.765625 -1.78125 L -11.90625 -15.3125 L 0 -27.34375 L 2.84375 -24.546875 L -5.78125 -15.828125 L -3.15625 -13.21875 L 3.34375 -19.78125 L 5.96875 -17.1875 L -0.53125 -10.625 L 2.21875 -7.890625 L 11.03125 -16.796875 L 13.859375 -14 Z M 1.765625 -1.78125 "/></g></g></g><g fill="#ffffff" fill-opacity="1"><g transform="translate(66.121813, 47.427856)"><g><path d="M 2.203125 -1.1875 L -6.953125 -18.09375 L -0.71875 -21.484375 L 8.484375 -13.8125 L 9.03125 -14.109375 L 7.640625 -26.015625 L 13.828125 -29.359375 L 22.984375 -12.453125 L 18.9375 -10.265625 L 12.3125 -22.484375 L 11.9375 -22.28125 L 13.28125 -10.359375 L 9.234375 -8.15625 L 0 -15.8125 L -0.390625 -15.59375 L 6.234375 -3.375 Z M 2.203125 -1.1875 "/></g></g></g><g fill="#ffffff" fill-opacity="1"><g transform="translate(95.016423, 33.541099)"><g/></g></g><g fill="#ffffff" fill-opacity="1"><g transform="translate(107.632829, 29.850946)"><g><path d="M 2.5 -0.109375 L 1.609375 -19.328125 L 16.4375 -20.03125 L 20.625 -16.203125 L 21.140625 -5.015625 L 17.328125 -0.8125 Z M 6.96875 -4.3125 L 14.828125 -4.6875 L 16.40625 -6.421875 L 16.03125 -14.375 L 14.296875 -15.9375 L 6.4375 -15.5625 Z M 6.96875 -4.3125 "/></g></g></g><g fill="#ffffff" fill-opacity="1"><g transform="translate(134.161284, 29.10109)"><g><path d="M 18.65625 -15.390625 L 21.921875 3.71875 L 21.609375 5.0625 L 17.203125 4.03125 L 16.609375 -0.109375 L 7.203125 -2.3125 L 4.796875 1.125 L 0.5 0.125 L 0.8125 -1.21875 L 12.28125 -16.890625 Z M 9.65625 -5.84375 L 15.953125 -4.375 L 14.8125 -12.109375 L 14.1875 -12.25 Z M 9.65625 -5.84375 "/></g></g></g><g fill="#ffffff" fill-opacity="1"><g transform="translate(159.611774, 36.182589)"><g/></g></g><g fill="#ffffff" fill-opacity="1"><g transform="translate(171.65648, 41.730228)"><g><path d="M 2.015625 1.484375 L 13.375 -14.03125 L 26.59375 -4.359375 L 24.25 -1.140625 L 14.796875 -8.0625 L 11.953125 -4.1875 L 19.046875 1.015625 L 16.8125 4.0625 L 9.71875 -1.140625 L 5.78125 4.234375 Z M 2.015625 1.484375 "/></g></g></g><g fill="#ffffff" fill-opacity="1"><g transform="translate(189.849919, 55.475688)"><g><path d="M 1.59375 1.921875 L 16.421875 -10.328125 L 27.203125 2.734375 L 24.140625 5.28125 L 16.328125 -4.171875 L 13.46875 -1.828125 L 19.359375 5.296875 L 16.515625 7.65625 L 10.625 0.53125 L 7.640625 3 L 15.625 12.65625 L 12.546875 15.1875 Z M 21.796875 -5.796875 L 22.0625 -6.03125 L 25.953125 -7.21875 L 28.296875 -4.390625 L 28.03125 -4.171875 L 23.734375 -3.4375 Z M 21.796875 -5.796875 "/></g></g></g><g fill="#ffffff" fill-opacity="1"><g transform="translate(205.036595, 74.190718)"><g><path d="M 1.015625 2.28125 L 18.59375 -5.515625 L 21.484375 1.015625 L 11.453125 13.5 L 11.65625 13.921875 L 24.65625 8.15625 L 26.453125 12.234375 L 8.875 20.03125 L 5.984375 13.5 L 16.015625 1.015625 L 15.828125 0.59375 L 2.8125 6.359375 Z M 1.015625 2.28125 "/></g></g></g><g fill="#ffffff" fill-opacity="1"><g transform="translate(215.395552, 100.005488)"><g><path d="M 0.234375 1.390625 L 3.84375 0.765625 L 4.5 4.546875 L 16.234375 2.515625 L 15.578125 -1.265625 L 19.1875 -1.890625 L 21.296875 10.28125 L 17.6875 10.90625 L 17.03125 7.125 L 5.296875 9.15625 L 5.953125 12.9375 L 2.34375 13.5625 Z M 0.234375 1.390625 "/></g></g></g><g fill="#ffffff" fill-opacity="1"><g transform="translate(218.515686, 118.544338)"><g><path d="M -0.046875 0.71875 L 1.328125 0.796875 L 9.5625 7.796875 L 17.75 2.28125 L 19.125 2.359375 L 18.875 6.953125 L 12.59375 10.953125 L 12.5625 11.421875 L 18.359375 16.125 L 18.09375 20.578125 L 16.71875 20.5 L 9.203125 14.0625 L 0.234375 20.109375 L -1.140625 20.03125 L -0.875 15.4375 L 6.203125 10.921875 L 6.21875 10.46875 L -0.296875 5.171875 Z M -0.046875 0.71875 "/></g></g></g></g></g><g transform="matrix(1, 0, 0, 1, 166, 276)"><g clip-path="url(#e90d04253c)"><g fill="#ffffff" fill-opacity="1"><g transform="translate(0.987416, 21.717251)"><g><path d="M 4.4375 0.5 L 1.796875 -2.828125 L 2.734375 -11.171875 L 6.046875 -13.828125 L 16.453125 -12.65625 L 16.125 -9.6875 L 7.453125 -10.671875 L 6.078125 -9.578125 L 5.40625 -3.625 L 6.5 -2.28125 L 11.796875 -1.671875 L 13.1875 -2.75 L 13.390625 -4.5625 L 8.78125 -5.09375 L 9.078125 -7.71875 L 17.125 -6.8125 L 16.5 -1.1875 L 13.171875 1.484375 Z M 4.4375 0.5 "/></g></g></g><g fill="#ffffff" fill-opacity="1"><g transform="translate(26.029982, 23.577244)"><g><path d="M 1.859375 -0.21875 L 0.171875 -14.546875 L 10.828125 -15.796875 L 13.8125 -13.46875 L 14.40625 -8.453125 L 12.046875 -5.453125 L 4.875 -4.609375 L 5.34375 -0.625 Z M 4.53125 -7.578125 L 9.921875 -8.21875 L 10.765625 -9.28125 L 10.484375 -11.78125 L 9.390625 -12.625 L 4 -11.984375 Z M 4.53125 -7.578125 "/></g></g></g></g></g></svg>